v 0.000000 0.831470 -0.555570
v 0.000000 0.195090 -0.980785
v 0.000000 -0.555570 -0.831470
v 0.074658 0.980785 -0.180240
v 0.318190 0.555570 -0.768178
v 0.375330 -0.195090 -0.906127
v 0.212608 -0.831470 -0.513280
v 0.392847 0.831470 -0.392847
v 0.693520 0.195090 -0.693520
v 0.587938 -0.555570 -0.587938
v 0.137950 -0.980785 -0.137950
v 0.000000 1.000000 0.000000
v 0.180240 0.980785 -0.074658
v 0.768178 0.555570 -0.318190
v 0.906127 -0.195090 -0.375330
v 0.513280 -0.831470 -0.212607
v 0.555570 0.831470 0.000000
v 0.980785 0.195090 0.000000
v 0.831469 -0.555570 0.000000
v 0.195090 -0.980785 0.000000
v 0.180240 0.980785 0.074658
v 0.768178 0.555570 0.318190
v 0.906127 -0.195090 0.375330
v 0.513280 -0.831470 0.212608
v 0.392847 0.831470 0.392847
v 0.693520 0.195090 0.693520
v 0.587938 -0.555570 0.587938
v 0.137950 -0.980785 0.137950
v 0.074658 0.980785 0.180240
v 0.318189 0.555570 0.768178
v 0.375330 -0.195090 0.906127
v 0.212607 -0.831470 0.513280
v -0.000000 0.831470 0.555570
v -0.000000 0.195090 0.980785
v -0.000000 -0.555570 0.831469
v -0.000000 -0.980785 0.195090
v -0.074658 0.980785 0.180240
v -0.318190 0.555570 0.768177
v -0.375330 -0.195090 0.906127
v -0.212608 -0.831470 0.513280
v -0.392847 0.831470 0.392847
v -0.693520 0.195090 0.693520
v -0.587938 -0.555570 0.587937
v -0.137950 -0.980785 0.137950
v 0.000000 -1.000000 0.000000
v -0.180240 0.980785 0.074658
v -0.768177 0.555570 0.318189
v -0.906127 -0.195090 0.375330
v -0.513280 -0.831470 0.212607
v -0.555570 0.831470 -0.000000
v -0.980785 0.195090 -0.000000
v -0.831469 -0.555570 -0.000000
v -0.195090 -0.980785 -0.000000
v -0.180240 0.980785 -0.074658
v -0.768177 0.555570 -0.318190
v -0.906127 -0.195090 -0.375330
v -0.513279 -0.831470 -0.212607
v -0.392847 0.831470 -0.392847
v -0.693519 0.195090 -0.693520
v -0.587937 -0.555570 -0.587938
v -0.137950 -0.980785 -0.137950
v -0.074658 0.980785 -0.180240
v -0.318189 0.555570 -0.768177
v -0.375330 -0.195090 -0.906127
v -0.212607 -0.831470 -0.513279
v 0.000000 -0.980785 -0.195090
vn -0.0000 -0.2028 -0.9792
vn 0.6924 -0.2028 -0.6924
vn 0.7318 -0.6104 -0.3031
vn -0.0000 0.9292 -0.3696
vn 0.3759 0.1879 -0.9074
vn 0.2614 0.9292 -0.2614
vn 0.2507 0.7555 -0.6052
vn 0.3004 -0.9053 -0.3004
vn -0.0000 -0.9053 -0.4248
vn 0.8613 0.5080 -0.0000
vn 0.9074 0.1879 0.3759
vn 0.9792 -0.2028 -0.0000
vn 0.6052 0.7555 -0.2507
vn 0.4248 -0.9053 -0.0000
vn 0.3696 0.9292 -0.0000
vn 0.3415 -0.9292 -0.1415
vn 0.7318 -0.6104 0.3031
vn 0.6091 0.5080 0.6091
vn 0.3759 0.1879 0.9074
vn 0.6924 -0.2028 0.6924
vn 0.6052 0.7555 0.2507
vn 0.3004 -0.9053 0.3004
vn 0.3415 -0.9292 0.1415
vn 0.2614 0.9292 0.2614
vn 0.3031 -0.6104 0.7318
vn -0.0000 0.5080 0.8613
vn -0.3759 0.1879 0.9074
vn 0.2507 0.7555 0.6052
vn -0.0000 -0.2028 0.9792
vn -0.0000 -0.9053 0.4248
vn -0.0000 0.9292 0.3696
vn 0.1415 -0.9292 0.3415
vn -0.3031 -0.6104 0.7318
vn -0.9074 0.1879 0.3759
vn -0.6091 0.5080 0.6091
vn -0.2507 0.7555 0.6052
vn -0.6924 -0.2028 0.6924
vn -0.3004 -0.9053 0.3004
vn -0.7318 -0.6104 0.3031
vn -0.1415 -0.9292 0.3415
vn -0.2614 0.9292 0.2614
vn -0.8613 0.5080 -0.0000
vn -0.9074 0.1879 -0.3759
vn -0.6052 0.7555 0.2507
vn -0.9792 -0.2028 -0.0000
vn -0.4248 -0.9053 -0.0000
vn -0.3415 -0.9292 0.1415
vn -0.7318 -0.6104 -0.3031
vn -0.3696 0.9292 -0.0000
vn -0.3759 0.1879 -0.9074
vn -0.6091 0.5080 -0.6091
vn -0.3004 -0.9053 -0.3004
vn -0.6924 -0.2028 -0.6924
vn -0.6052 0.7555 -0.2507
vn -0.3031 -0.6104 -0.7318
vn -0.2614 0.9292 -0.2614
vn -0.3415 -0.9292 -0.1415
vn 0.3031 -0.6104 -0.7318
vn -0.2507 0.7555 -0.6052
vn 0.6091 0.5080 -0.6091
vn -0.1415 -0.9292 -0.3415
vn 0.1415 -0.9292 -0.3415
vn 0.9074 0.1879 -0.3759
vn -0.0000 0.5080 -0.8613
vn -0.0000 -0.1879 -0.9822
vn 0.6945 -0.1879 -0.6945
vn 0.7958 -0.5080 -0.3296
vn -0.0000 0.9944 -0.1060
vn 0.3747 0.2028 -0.9047
vn 0.0750 0.9944 -0.0750
vn 0.1626 0.9053 -0.3925
vn 0.4632 -0.7555 -0.4632
vn -0.0000 -0.7555 -0.6551
vn 0.7921 0.6104 -0.0000
vn 0.9047 0.2028 0.3747
vn 0.9822 -0.1879 -0.0000
vn 0.3925 0.9053 -0.1626
vn 0.6551 -0.7555 -0.0000
vn 0.1060 0.9944 -0.0000
vn 0.0979 -0.9944 -0.0406
vn 0.7958 -0.5080 0.3296
vn 0.5601 0.6104 0.5601
vn 0.3747 0.2028 0.9047
vn 0.6945 -0.1879 0.6945
vn 0.3925 0.9053 0.1626
vn 0.4632 -0.7555 0.4632
vn 0.0979 -0.9944 0.0406
vn 0.0750 0.9944 0.0750
vn 0.3296 -0.5080 0.7958
vn -0.0000 0.6104 0.7921
vn -0.3747 0.2028 0.9047
vn 0.1626 0.9053 0.3925
vn -0.0000 -0.1879 0.9822
vn -0.0000 -0.7555 0.6551
vn -0.0000 0.9944 0.1060
vn 0.0406 -0.9944 0.0979
vn -0.3296 -0.5080 0.7958
vn -0.9047 0.2028 0.3747
vn -0.5601 0.6104 0.5601
vn -0.1626 0.9053 0.3925
vn -0.6945 -0.1879 0.6945
vn -0.4632 -0.7555 0.4632
vn -0.7958 -0.5080 0.3296
vn -0.0406 -0.9944 0.0979
vn -0.0750 0.9944 0.0750
vn -0.7921 0.6104 -0.0000
vn -0.9047 0.2028 -0.3747
vn -0.3925 0.9053 0.1626
vn -0.9822 -0.1879 -0.0000
vn -0.6551 -0.7555 -0.0000
vn -0.0979 -0.9944 0.0406
vn -0.7958 -0.5080 -0.3296
vn -0.1060 0.9944 -0.0000
vn -0.3747 0.2028 -0.9047
vn -0.5601 0.6104 -0.5601
vn -0.4632 -0.7555 -0.4632
vn -0.6945 -0.1879 -0.6945
vn -0.3925 0.9053 -0.1626
vn -0.3296 -0.5080 -0.7958
vn -0.0750 0.9944 -0.0750
vn -0.0979 -0.9944 -0.0406
vn 0.3296 -0.5080 -0.7958
vn -0.1626 0.9053 -0.3925
vn 0.5601 0.6104 -0.5601
vn -0.0406 -0.9944 -0.0979
vn 0.0406 -0.9944 -0.0979
vn 0.9047 0.2028 -0.3747
vn -0.0000 0.6104 -0.7921
vt 0.812500 0.437500
vt 0.687500 0.437500
vt 0.750000 0.312500
vt 0.562500 0.437500
vt 0.625000 0.312500
vt 0.500000 0.312500
vt 0.562500 0.187500
vt 0.812500 0.937500
vt 0.687500 0.937500
vt 0.750000 0.812500
vt 0.750000 0.562500
vt 0.625000 0.562500
vt 0.562500 0.937500
vt 0.625000 0.812500
vt 0.687500 0.687500
vt 0.687500 0.187500
vt 0.625000 0.062500
vt 0.812500 0.187500
vt 0.750000 0.062500
vt 0.562500 0.687500
vt 0.437500 0.687500
vt 0.500000 0.562500
vt 0.375000 0.562500
vt 0.437500 0.437500
vt 0.500000 0.812500
vt 0.437500 0.187500
vt 0.500000 0.062500
vt 0.437500 0.937500
vt 0.375000 0.312500
vt 0.312500 0.687500
vt 0.250000 0.562500
vt 0.312500 0.437500
vt 0.375000 0.812500
vt 0.312500 0.187500
vt 0.375000 0.062500
vt 0.312500 0.937500
vt 0.250000 0.312500
vt 0.187500 0.687500
vt 0.125000 0.562500
vt 0.187500 0.437500
vt 0.250000 0.812500
vt 0.187500 0.187500
vt 0.250000 0.062500
vt 0.187500 0.937500
vt 0.125000 0.312500
vt 1.000000 0.562500
vt 0.062500 0.437500
vt 0.062500 0.687500
vt 0.125000 0.812500
vt 0.062500 0.187500
vt 0.125000 0.062500
vt 1.000000 0.312500
vt 0.062500 0.937500
vt 0.937500 0.687500
vt 0.000000 0.562500
vt 0.875000 0.562500
vt 0.937500 0.437500
vt 1.000000 0.812500
vt 0.000000 0.312500
vt 0.937500 0.187500
vt 0.000000 0.062500
vt 0.875000 0.312500
vt 0.937500 0.937500
vt 0.000000 0.812500
vt 0.812500 0.687500
vt 0.875000 0.062500
vt 0.875000 0.812500
vt 0.703125 1.000000
vt 0.578125 1.000000
vt 0.453125 1.000000
vt 0.609375 0.000000
vt 0.484375 0.000000
vt 0.328125 1.000000
vt 0.203125 1.000000
vt 0.359375 0.000000
vt 0.234375 0.000000
vt 0.078125 1.000000
vt 0.109375 0.000000
vt 0.953125 1.000000
vt 0.828125 1.000000
vt 0.984375 0.000000
vt 0.859375 0.000000
vt 0.734375 0.000000
s 0
f 64/1/1 6/2/1 3/3/1
f 6/2/2 15/4/2 10/5/2
f 10/5/3 19/6/3 16/7/3
f 62/8/4 4/9/4 1/10/4
f 2/11/5 9/12/5 6/2/5
f 4/9/6 13/13/6 8/14/6
f 1/10/7 8/14/7 5/15/7
f 7/16/8 16/7/8 11/17/8
f 65/18/9 7/16/9 66/19/9
f 14/20/10 22/21/10 18/22/10
f 18/22/11 26/23/11 23/24/11
f 15/4/12 23/24/12 19/6/12
f 8/14/13 17/25/13 14/20/13
f 16/7/14 24/26/14 20/27/14
f 13/13/15 21/28/15 17/25/15
f 20/27/16 11/17/16 16/7/16
f 19/6/17 27/29/17 24/26/17
f 22/21/18 30/30/18 26/23/18
f 26/23/19 34/31/19 31/32/19
f 23/24/20 31/32/20 27/29/20
f 17/25/21 25/33/21 22/21/21
f 24/26/22 32/34/22 28/35/22
f 28/35/23 20/27/23 24/26/23
f 21/28/24 29/36/24 25/33/24
f 27/29/25 35/37/25 32/34/25
f 30/30/26 38/38/26 34/31/26
f 34/31/27 42/39/27 39/40/27
f 25/33/28 33/41/28 30/30/28
f 31/32/29 39/40/29 35/37/29
f 32/34/30 40/42/30 36/43/30
f 29/36/31 37/44/31 33/41/31
f 36/43/32 28/35/32 32/34/32
f 35/37/33 43/45/33 40/42/33
f 42/39/34 51/46/34 48/47/34
f 38/38/35 47/48/35 42/39/35
f 33/41/36 41/49/36 38/38/36
f 39/40/37 48/47/37 43/45/37
f 40/42/38 49/50/38 44/51/38
f 43/45/39 52/52/39 49/50/39
f 44/51/40 36/43/40 40/42/40
f 37/44/41 46/53/41 41/49/41
f 47/48/42 55/54/42 51/55/42
f 51/55/43 59/56/43 56/57/43
f 41/49/44 50/58/44 47/48/44
f 48/47/45 56/57/45 52/59/45
f 49/50/46 57/60/46 53/61/46
f 53/61/47 44/51/47 49/50/47
f 52/59/48 60/62/48 57/60/48
f 46/53/49 54/63/49 50/64/49
f 59/56/50 2/11/50 64/1/50
f 55/54/51 63/65/51 59/56/51
f 57/60/52 65/18/52 61/66/52
f 56/57/53 64/1/53 60/62/53
f 50/64/54 58/67/54 55/54/54
f 60/62/55 3/3/55 65/18/55
f 54/63/56 62/8/56 58/67/56
f 61/66/57 53/61/57 57/60/57
f 3/3/58 10/5/58 7/16/58
f 58/67/59 1/10/59 63/65/59
f 5/15/60 14/20/60 9/12/60
f 66/19/61 61/66/61 65/18/61
f 11/17/62 66/19/62 7/16/62
f 9/12/63 18/22/63 15/4/63
f 63/65/64 5/15/64 2/11/64
f 64/1/65 2/11/65 6/2/65
f 6/2/66 9/12/66 15/4/66
f 10/5/67 15/4/67 19/6/67
f 62/8/68 12/68/68 4/9/68
f 2/11/69 5/15/69 9/12/69
f 4/9/70 12/69/70 13/13/70
f 1/10/71 4/9/71 8/14/71
f 7/16/72 10/5/72 16/7/72
f 65/18/73 3/3/73 7/16/73
f 14/20/74 17/25/74 22/21/74
f 18/22/75 22/21/75 26/23/75
f 15/4/76 18/22/76 23/24/76
f 8/14/77 13/13/77 17/25/77
f 16/7/78 19/6/78 24/26/78
f 13/13/79 12/70/79 21/28/79
f 20/27/80 45/71/80 11/17/80
f 19/6/81 23/24/81 27/29/81
f 22/21/82 25/33/82 30/30/82
f 26/23/83 30/30/83 34/31/83
f 23/24/84 26/23/84 31/32/84
f 17/25/85 21/28/85 25/33/85
f 24/26/86 27/29/86 32/34/86
f 28/35/87 45/72/87 20/27/87
f 21/28/88 12/73/88 29/36/88
f 27/29/89 31/32/89 35/37/89
f 30/30/90 33/41/90 38/38/90
f 34/31/91 38/38/91 42/39/91
f 25/33/92 29/36/92 33/41/92
f 31/32/93 34/31/93 39/40/93
f 32/34/94 35/37/94 40/42/94
f 29/36/95 12/74/95 37/44/95
f 36/43/96 45/75/96 28/35/96
f 35/37/97 39/40/97 43/45/97
f 42/39/98 47/48/98 51/46/98
f 38/38/99 41/49/99 47/48/99
f 33/41/100 37/44/100 41/49/100
f 39/40/101 42/39/101 48/47/101
f 40/42/102 43/45/102 49/50/102
f 43/45/103 48/47/103 52/52/103
f 44/51/104 45/76/104 36/43/104
f 37/44/105 12/77/105 46/53/105
f 47/48/106 50/58/106 55/54/106
f 51/55/107 55/54/107 59/56/107
f 41/49/108 46/53/108 50/58/108
f 48/47/109 51/46/109 56/57/109
f 49/50/110 52/52/110 57/60/110
f 53/61/111 45/78/111 44/51/111
f 52/59/112 56/57/112 60/62/112
f 46/53/113 12/79/113 54/63/113
f 59/56/114 63/65/114 2/11/114
f 55/54/115 58/67/115 63/65/115
f 57/60/116 60/62/116 65/18/116
f 56/57/117 59/56/117 64/1/117
f 50/64/118 54/63/118 58/67/118
f 60/62/119 64/1/119 3/3/119
f 54/63/120 12/80/120 62/8/120
f 61/66/121 45/81/121 53/61/121
f 3/3/122 6/2/122 10/5/122
f 58/67/123 62/8/123 1/10/123
f 5/15/124 8/14/124 14/20/124
f 66/19/125 45/82/125 61/66/125
f 11/17/126 45/83/126 66/19/126
f 9/12/127 14/20/127 18/22/127
f 63/65/128 1/10/128 5/15/128
